<?xml version="1.0" encoding="utf-8"?>
<!-- Generator: Adobe Illustrator 27.0.0, SVG Export Plug-In . SVG Version: 6.00 Build 0)  -->
<svg version="1.1" xmlns="http://www.w3.org/2000/svg" xmlns:xlink="http://www.w3.org/1999/xlink" x="0px" y="0px"
	 viewBox="0 0 1300 400" style="enable-background:new 0 0 1300 400;" xml:space="preserve">
<style type="text/css">
	.st0{fill:#1E1672;}
	.st1{fill:#FFFFFF;}
	.st2{font-family:fantasy;}
	.st3{font-size:211.7048px;}
</style>
<g id="图层_1">
</g>
<g id="图层_2">
	<g>
		<path class="st0" d="M343.95,352.73H139.7c-26.44,0-47.87-21.43-47.87-47.87V102.73c0-27.61,22.39-50,50-50h202.13
			c26.44,0,47.87,21.43,47.87,47.87v204.25C391.83,331.3,370.39,352.73,343.95,352.73z"/>
	</g>
	<g>
		<path class="st1" d="M246.01,283.23h-8.36c-10.08,0-18.25-8.17-18.25-18.25V142.24c0-10.08,8.17-18.25,18.25-18.25h8.36
			c10.08,0,18.25,8.17,18.25,18.25v122.73C264.26,275.06,256.09,283.23,246.01,283.23z"/>
	</g>
	<g>
		<path class="st1" d="M311.45,159.18H173.09c-5.52,0-10-4.48-10-10v-23.99c0-5.52,4.48-10,10-10h138.36c5.52,0,10,4.48,10,10v23.99
			C321.45,154.7,316.97,159.18,311.45,159.18z"/>
	</g>
	<g>
		<path class="st1" d="M310.57,295.55H172.21c-5.52,0-10-4.48-10-10v-23.99c0-5.52,4.48-10,10-10h138.36c5.52,0,10,4.48,10,10v23.99
			C320.57,291.07,316.09,295.55,310.57,295.55z"/>
	</g>
	<text transform="matrix(1 0 0 1 439.8271 273.9935)" class="st0 st2 st3">PageLib</text>
</g>
</svg>
